<svg width="45" height="45" viewBox="0 0 45 45" fill="none" xmlns="http://www.w3.org/2000/svg">
  <rect width="45" height="45" rx="5" fill="transparent" />
  <path d="M27.5947 24.2145C28.2078 24.2002 28.829 24.0831 29.4348 23.8527C32.2905 22.7668 33.7238 19.5752 32.6362 16.7241C31.5485 13.873 28.3518 12.442 25.496 13.5279C24.2149 14.015 23.22 14.926 22.6106 16.0399M17.5273 24.1365C17.1846 24.8692 17.0022 25.6761 17.0059 26.5C17.0088 27.1456 17.126 27.8016 17.3697 28.4405C18.4574 31.2917 21.6541 32.7227 24.5098 31.6368C27.3655 30.5508 28.7989 27.3593 27.7112 24.5081C26.8693 22.3013 24.7639 20.9453 22.531 20.9487M19.504 23.6881C22.3597 22.6022 23.793 19.4106 22.7053 16.5595C21.6177 13.7083 18.4209 12.2773 15.5652 13.3632C12.7095 14.4492 11.2762 17.6407 12.3638 20.4919C13.4515 23.343 16.6482 24.774 19.504 23.6881Z" stroke="#282631" stroke-width="1.5" />
  <circle cx="17.5" cy="18.5" r="1.5" fill="#A8D307" />
</svg>