<svg width="45" height="45" viewBox="0 0 45 45" fill="none" xmlns="http://www.w3.org/2000/svg">
  <g clip-path="url(#clip0_989_534)">
    <path fill-rule="evenodd" clip-rule="evenodd" d="M15.2987 12.6622C17.9798 11.6428 20.9244 12.5789 22.5624 14.7647C23.2393 13.9203 24.1447 13.2397 25.2294 12.8272C28.4712 11.5945 32.1013 13.2185 33.3368 16.4571C34.5723 19.6963 32.9434 23.3209 29.7011 24.5538C29.3418 24.6904 28.977 24.7903 28.6112 24.8585C29.4347 27.9284 27.8139 31.1829 24.7763 32.338C21.5346 33.5705 17.9044 31.9466 16.6689 28.7081C16.3925 27.9836 16.2591 27.2374 16.2558 26.503C16.2531 25.8923 16.3409 25.2904 16.5097 24.7149C14.3792 24.3611 12.4876 22.9203 11.663 20.7589C10.4276 17.5198 12.0565 13.8951 15.2987 12.6622ZM22.9423 21.7169C22.2436 22.8992 21.1548 23.8623 19.7704 24.3888C19.2109 24.6015 18.6395 24.7275 18.0712 24.7764C17.8632 25.3213 17.7531 25.9046 17.7558 26.4972C17.7583 27.0536 17.8593 27.6199 18.0702 28.1729C19.01 30.6365 21.7735 31.8746 24.2431 30.9356C26.7121 29.9968 27.9502 27.2385 27.0106 24.7755C26.3353 23.0053 24.7175 21.8676 22.9423 21.7169ZM31.9355 16.9913C30.9956 14.5278 28.2322 13.2897 25.7626 14.2286C24.7261 14.6228 23.9065 15.3363 23.3739 16.2149C23.3786 16.2267 23.3836 16.2383 23.3887 16.25C23.3947 16.2639 23.4007 16.2779 23.4062 16.2921C23.9134 17.6219 23.9371 19.0167 23.5653 20.2843C25.4164 20.5917 27.0868 21.7206 28.0341 23.4307C28.4133 23.3851 28.7936 23.2937 29.1679 23.1514C31.6369 22.2126 32.875 19.4543 31.9355 16.9913ZM22.0048 16.8272C21.065 14.3637 18.3015 13.1256 15.8319 14.0645C13.3629 15.0034 12.1248 17.7617 13.0644 20.2247C14.0042 22.6882 16.7676 23.9263 19.2372 22.9874C21.7061 22.0486 22.9441 19.2901 22.0048 16.8272Z" fill="#282631" />
    <path fill-rule="evenodd" clip-rule="evenodd" d="M45 0H0V45H45V0ZM25.7626 14.2286C28.2322 13.2897 30.9956 14.5278 31.9355 16.9913C32.875 19.4543 31.6369 22.2126 29.1679 23.1514C28.7936 23.2937 28.4133 23.3851 28.0341 23.4307C27.0868 21.7206 25.4164 20.5917 23.5653 20.2843C23.9371 19.0167 23.9134 17.6219 23.4062 16.2921C23.4007 16.2779 23.3947 16.2639 23.3887 16.25C23.3836 16.2383 23.3786 16.2267 23.3739 16.2149C23.9065 15.3363 24.7261 14.6228 25.7626 14.2286ZM22.9423 21.7169C22.2436 22.8992 21.1548 23.8623 19.7704 24.3888C19.2109 24.6015 18.6395 24.7275 18.0712 24.7764C17.8632 25.3213 17.7531 25.9046 17.7558 26.4972C17.7583 27.0536 17.8593 27.6199 18.0702 28.1729C19.01 30.6365 21.7735 31.8746 24.2431 30.9356C26.7121 29.9968 27.9502 27.2385 27.0106 24.7755C26.3353 23.0053 24.7175 21.8676 22.9423 21.7169ZM15.8319 14.0645C18.3015 13.1256 21.065 14.3637 22.0048 16.8272C22.9441 19.2901 21.7061 22.0486 19.2372 22.9874C16.7676 23.9263 14.0042 22.6882 13.0644 20.2247C12.1248 17.7617 13.3629 15.0034 15.8319 14.0645Z" fill="white" />
    <circle cx="17.5" cy="18.5" r="1.5" fill="#A8D307" />
  </g>
  <defs>
    <clipPath id="clip0_989_534">
      <rect width="45" height="45" rx="5" fill="white" />
    </clipPath>
  </defs>
</svg>