<svg width="45" height="45" viewBox="0 0 45 45" fill="none" xmlns="http://www.w3.org/2000/svg">
  <rect width="45" height="45" rx="5" fill="transparent" />
  <path fill-rule="evenodd" clip-rule="evenodd" d="M18.9093 12.8639C20.1955 11.1 22.6426 10.9263 24.1554 12.3629C24.294 12.4947 24.4248 12.64 24.545 12.7975C24.5597 12.8168 24.5745 12.8374 24.589 12.8571L27.4522 16.7643L34.1251 24.6422L34.1641 24.6891L34.1934 24.7428C34.523 25.3459 34.6547 26.0128 34.5792 26.6169C34.5037 27.2191 34.2107 27.8084 33.6446 28.1383L33.6436 28.1374L31.8145 29.2067C31.7008 30.0592 31.2245 30.8806 30.3477 31.111L27.4561 31.8747C27.1238 32.2713 26.6627 32.5631 26.1143 32.5963L25.9864 32.5993L17.4913 32.4997C16.8334 32.491 16.2939 32.114 15.9434 31.6198C15.5923 31.1243 15.3957 30.472 15.4005 29.7819V18.7975C15.4006 18.0726 15.6283 17.3641 16.0528 16.7819L18.9093 12.8639ZM23.3292 13.2331C22.3365 12.2902 20.7343 12.3981 19.879 13.571L17.0225 17.4889C16.75 17.8628 16.5998 18.3229 16.5997 18.7975V29.7907C16.5965 30.2562 16.7313 30.6561 16.922 30.9254C17.1136 31.1959 17.3288 31.2971 17.5059 31.2995L26.0011 31.4001C26.1845 31.4024 26.4114 31.2978 26.6104 31.0075C26.6301 30.9788 26.6496 30.9484 26.6681 30.9167C26.8169 30.6609 26.9176 30.3175 26.921 29.9264V18.8014C26.921 18.7506 26.9175 18.6994 26.9141 18.6491L26.4483 17.4254L23.6212 13.5661C23.6114 13.5527 23.6009 13.5392 23.5909 13.526C23.5091 13.4188 23.4215 13.3208 23.3292 13.2331ZM28.1202 29.9303C28.1189 30.1144 28.1012 30.295 28.0724 30.4704L30.0421 29.9499C30.3068 29.8802 30.629 29.522 30.6417 28.8366C30.6449 28.6627 30.6248 28.4781 30.5802 28.2897L28.1202 21.82V29.9303ZM31.7081 27.8796L33.0391 27.1012C33.2015 27.0066 33.3467 26.803 33.3888 26.4684C33.4289 26.1479 33.3641 25.7508 33.1632 25.3629L28.7852 20.195L31.7081 27.8796Z" fill="#282631" />
  <path d="M22.7187 16C22.7187 16.5523 22.271 17 21.7187 17C21.1665 17 20.7187 16.5523 20.7187 16C20.7187 15.4477 21.1665 15 21.7187 15C22.271 15 22.7187 15.4477 22.7187 16Z" fill="#282631" />
  <circle cx="22" cy="16" r="1.5" fill="#A8D307" />
</svg>