<svg width="45" height="45" viewBox="0 0 45 45" fill="none" xmlns="http://www.w3.org/2000/svg">
  <g clip-path="url(#clip0_989_537)">
    <path fill-rule="evenodd" clip-rule="evenodd" d="M18.9093 12.8649C20.1955 11.1006 22.6426 10.927 24.1554 12.3639C24.294 12.4957 24.4248 12.6409 24.545 12.7985C24.5597 12.8177 24.5745 12.8384 24.5889 12.858L27.4522 16.7653L34.1251 24.6432L34.1641 24.6901L34.1934 24.7438C34.5229 25.3469 34.6548 26.0138 34.5792 26.6178C34.5036 27.2199 34.2106 27.8094 33.6446 28.1393L33.6436 28.1383L31.8145 29.2076C31.7007 30.0599 31.2244 30.8816 30.3477 31.1119L27.4561 31.8756C27.1238 32.2721 26.6626 32.564 26.1143 32.5973L25.9864 32.6002L17.4913 32.5006C16.8335 32.4919 16.2939 32.1148 15.9434 31.6207C15.5923 31.1253 15.3958 30.4729 15.4005 29.7828V18.7985C15.4005 18.0735 15.6284 17.3651 16.0528 16.7828L18.9093 12.8649ZM23.3292 13.234C22.3364 12.2909 20.7343 12.3987 19.879 13.5719L17.0225 17.4899C16.75 17.8638 16.5997 18.3238 16.5997 18.7985V29.7916C16.5966 30.2571 16.7312 30.6571 16.922 30.9264C17.1136 31.1966 17.3288 31.2981 17.5059 31.3004L26.0011 31.401C26.1845 31.4033 26.4115 31.2985 26.6104 31.0084C26.6301 30.9798 26.6496 30.9493 26.6681 30.9176C26.8169 30.6619 26.9175 30.3184 26.921 29.9274V18.8024C26.921 18.7516 26.9175 18.7003 26.9141 18.65L26.4483 17.4264L23.6212 13.567C23.6132 13.5561 23.6048 13.5452 23.5966 13.5344C23.5947 13.5319 23.5928 13.5294 23.5909 13.527C23.5091 13.4197 23.4215 13.3217 23.3292 13.234ZM28.1202 29.9313C28.1189 30.1153 28.1012 30.296 28.0723 30.4713L30.0421 29.9508C30.3067 29.8812 30.6288 29.5227 30.6417 28.8375C30.6449 28.6637 30.6247 28.4791 30.5802 28.2906L28.1202 21.8209V29.9313ZM31.7081 27.8805L33.0391 27.1022C33.2015 27.0076 33.3467 26.8037 33.3888 26.4694C33.4289 26.1488 33.364 25.7517 33.1632 25.3639L28.7852 20.1959L31.7081 27.8805Z" fill="#282631" />
    <path fill-rule="evenodd" clip-rule="evenodd" d="M5 0C2.23858 0 0 2.23858 0 5V40C0 42.7614 2.23858 45 5 45H40C42.7614 45 45 42.7614 45 40V5C45 2.23858 42.7614 0 40 0H5ZM19.879 13.5719C20.7343 12.3987 22.3364 12.2909 23.3292 13.234C23.4215 13.3217 23.5091 13.4197 23.5909 13.527L23.5966 13.5344C23.6048 13.5452 23.6132 13.5561 23.6212 13.567L26.4483 17.4264L26.9141 18.65C26.9175 18.7003 26.921 18.7516 26.921 18.8024V29.9274C26.9175 30.3184 26.8169 30.6619 26.6681 30.9176C26.6496 30.9493 26.6301 30.9798 26.6104 31.0084C26.4115 31.2985 26.1845 31.4033 26.0011 31.401L17.5059 31.3004C17.3288 31.2981 17.1136 31.1966 16.922 30.9264C16.7312 30.6571 16.5966 30.2571 16.5997 29.7916V18.7985C16.5997 18.3238 16.75 17.8638 17.0225 17.4899L19.879 13.5719ZM28.1202 29.9313C28.1189 30.1153 28.1012 30.296 28.0723 30.4713L30.0421 29.9508C30.3067 29.8812 30.6288 29.5227 30.6417 28.8375C30.6449 28.6637 30.6247 28.4791 30.5802 28.2906L28.1202 21.8209V29.9313ZM33.0391 27.1022L31.7081 27.8805L28.7852 20.1959L33.1632 25.3639C33.364 25.7517 33.4289 26.1488 33.3888 26.4694C33.3467 26.8037 33.2015 27.0076 33.0391 27.1022Z" fill="white" />
    <circle cx="21.7676" cy="17.5" r="1.5" fill="#A8D307" />
  </g>
  <defs>
    <clipPath id="clip0_989_537">
      <rect width="45" height="45" fill="white" />
    </clipPath>
  </defs>
</svg>