<svg width="45" height="45" viewBox="0 0 45 45" fill="none" xmlns="http://www.w3.org/2000/svg">
  <rect width="45" height="45" rx="5" fill="transparent" />
  <path d="M27.1 29.7647C27.1 30.9993 26.0703 32 24.8 32H20.2C18.9297 32 17.9 30.9993 17.9 29.7647M30.55 25.2941C30.55 26.5287 29.5203 27.5294 28.25 27.5294H16.75C15.4797 27.5294 14.45 26.5287 14.45 25.2941M13.3 13H31.7C32.9703 13 34 14.0008 34 15.2353V20.8235C34 22.058 32.9703 23.0588 31.7 23.0588H13.3C12.0297 23.0588 11 22.058 11 20.8235V15.2353C11 14.0008 12.0297 13 13.3 13Z" stroke="#282631" stroke-width="1.2" />
  <circle cx="22.5" cy="17.5" r="1.5" fill="#A8D307" />
</svg>