<svg width="45" height="45" viewBox="0 0 45 45" fill="none" xmlns="http://www.w3.org/2000/svg">
  <g clip-path="url(#clip0_989_543)">
    <circle cx="22.5" cy="17.2532" r="1.5" fill="#A8D307" />
    <path fill-rule="evenodd" clip-rule="evenodd" d="M23.625 24.7532C28.8027 24.7532 33 28.9505 33 34.1282C33 34.4734 32.7202 34.7532 32.375 34.7532H12.625C12.2798 34.7532 12 34.4734 12 34.1282C12 28.9505 16.1973 24.7532 21.375 24.7532H23.625ZM21.375 25.9534C17.0535 25.9534 13.5179 29.3065 13.2227 33.553H31.7773C31.4821 29.3065 27.9465 25.9534 23.625 25.9534H21.375Z" fill="#282631" />
    <path fill-rule="evenodd" clip-rule="evenodd" d="M22.5 10.7532C26.0899 10.7532 29 13.6633 29 17.2532C29 20.843 26.0899 23.7532 22.5 23.7532C18.9101 23.7532 16 20.843 16 17.2532C16 13.6633 18.9101 10.7532 22.5 10.7532ZM22.5 11.9534C19.5729 11.9534 17.2002 14.3261 17.2002 17.2532C17.2002 20.1803 19.5729 22.553 22.5 22.553C25.4271 22.553 27.7998 20.1803 27.7998 17.2532C27.7998 14.3261 25.4271 11.9534 22.5 11.9534Z" fill="#282631" />
    <path fill-rule="evenodd" clip-rule="evenodd" d="M0 5C0 2.23858 2.23858 0 5 0H40C42.7614 0 45 2.23858 45 5V40C45 42.7614 42.7614 45 40 45H5C2.23858 45 0 42.7614 0 40V5ZM21.375 25.9534C17.0535 25.9534 13.5179 29.3065 13.2227 33.553H31.7773C31.4821 29.3065 27.9465 25.9534 23.625 25.9534H21.375ZM17.2002 17.2532C17.2002 14.3261 19.5729 11.9534 22.5 11.9534C25.4271 11.9534 27.7998 14.3261 27.7998 17.2532C27.7998 20.1803 25.4271 22.553 22.5 22.553C19.5729 22.553 17.2002 20.1803 17.2002 17.2532Z" fill="white" />
  </g>
  <defs>
    <clipPath id="clip0_989_543">
      <rect width="45" height="45" fill="white" />
    </clipPath>
  </defs>
</svg>