<svg width="45" height="45" viewBox="0 0 45 45" fill="none" xmlns="http://www.w3.org/2000/svg">
  <g clip-path="url(#clip0_989_546)">
    <circle cx="23.0332" cy="28.1848" r="1.5" fill="#A8D307" />
    <path fill-rule="evenodd" clip-rule="evenodd" d="M22.9999 23.0001C25.7613 23.0001 27.9999 25.2387 27.9999 28.0001C27.9998 30.7615 25.7613 33.0001 22.9999 33.0001C20.2385 33 17.9999 30.7614 17.9999 28.0001C17.9999 25.2387 20.2385 23.0001 22.9999 23.0001ZM22.9999 24.2003C20.9012 24.2003 19.2001 25.9014 19.2001 28.0001C19.2001 30.0987 20.9013 31.7998 22.9999 31.7999C25.0985 31.7999 26.7996 30.0987 26.7997 28.0001C26.7997 25.9014 25.0986 24.2003 22.9999 24.2003Z" fill="transparent" />
    <path fill-rule="evenodd" clip-rule="evenodd" d="M19.2001 28.0001C19.2001 25.9014 20.9012 24.2003 22.9999 24.2003C25.0986 24.2003 26.7997 25.9014 26.7997 28.0001C26.7996 30.0987 25.0985 31.7999 22.9999 31.7999C20.9013 31.7998 19.2001 30.0987 19.2001 28.0001ZM22.9999 23.0001C25.7613 23.0001 27.9999 25.2387 27.9999 28.0001C27.9998 30.7615 25.7613 33.0001 22.9999 33.0001C20.2385 33 17.9999 30.7614 17.9999 28.0001C17.9999 25.2387 20.2385 23.0001 22.9999 23.0001Z" fill="transparent" />
    <path fill-rule="evenodd" clip-rule="evenodd" d="M5 0H40C42.7614 0 45 2.23858 45 5V40C45 42.7614 42.7614 45 40 45H5C2.23858 45 0 42.7614 0 40V5C0 2.23858 2.23858 0 5 0ZM27.9999 28.0001C27.9999 25.2387 25.7613 23.0001 22.9999 23.0001C20.2385 23.0001 17.9999 25.2387 17.9999 28.0001C17.9999 30.7614 20.2385 33 22.9999 33.0001C25.7613 33.0001 27.9998 30.7615 27.9999 28.0001ZM35.3085 17.296C28.4264 10.2613 17.6218 10.2098 10.6932 17.2921C9.81781 18.038 9.76693 19.4462 10.5653 20.255L12.6473 22.38C12.9791 22.7358 13.4279 22.9551 13.9081 22.9952L14.0389 23.0001C15.3338 23.0017 17.5705 21.5798 18.3817 20.5665L18.5282 20.3634C18.9361 19.7218 18.8994 18.8759 18.8655 18.0968L18.8638 18.0571C18.8552 17.8595 18.8473 17.6664 18.8475 17.4825C21.5759 16.7142 24.4556 16.7109 27.1825 17.4737C27.1823 17.67 27.1729 17.8767 27.1633 18.0883C27.1279 18.8673 27.0894 19.713 27.496 20.3536L27.6415 20.5567C28.4486 21.5664 30.6747 22.9778 31.9667 22.9815L32.0965 22.9776C32.5719 22.9407 33.0184 22.7276 33.3524 22.38L35.4383 20.252C36.2323 19.4402 36.18 18.0378 35.3085 17.296Z" fill="white" />
  </g>
  <defs>
    <clipPath id="clip0_989_546">
      <rect width="45" height="45" fill="white" />
    </clipPath>
  </defs>
</svg>