<svg width="45" height="45" viewBox="0 0 45 45" fill="none" xmlns="http://www.w3.org/2000/svg">
  <rect width="45" height="45" rx="5" fill="transparent" />
  <path d="M10.5659 20.2554L12.6475 22.3799C12.9794 22.7358 13.428 22.9546 13.9082 22.9946C15.2624 23.1075 17.8634 21.4092 18.5288 20.3629C19.0475 19.5472 18.8469 18.4015 18.8478 17.4824C21.5762 16.7141 24.4557 16.7112 27.1826 17.474C27.1817 18.3931 26.9788 19.5392 27.4959 20.3539C28.1583 21.3972 30.745 23.0823 32.0966 22.9771C32.572 22.9401 33.0184 22.7279 33.3524 22.3803L35.4382 20.2515C36.2321 19.4397 36.1806 18.0374 35.3091 17.2957C28.427 10.2609 17.6224 10.2099 10.6938 17.2922C9.81794 18.0382 9.76693 19.4466 10.5659 20.2554Z" stroke="#282631" stroke-width="1.2" stroke-linecap="round" stroke-linejoin="round" />
  <circle cx="23" cy="28" r="4.4" stroke="#282631" stroke-width="1.2" />
  <circle cx="23.5" cy="28.5" r="1.5" fill="#A8D307" />
</svg>