<svg width="45" height="45" viewBox="0 0 45 45" fill="none" xmlns="http://www.w3.org/2000/svg">
<g clip-path="url(#clip0_3129_607)">
<path fill-rule="evenodd" clip-rule="evenodd" d="M0 5C0 2.23858 2.23858 0 5 0H40C42.7614 0 45 2.23858 45 5V40C45 42.7614 42.7614 45 40 45H5C2.23858 45 0 42.7614 0 40V5ZM36 23C36 24.6569 34.6569 26 33 26C31.3431 26 30 24.6569 30 23C30 21.3431 31.3431 20 33 20C34.6569 20 36 21.3431 36 23ZM26 26C27.6569 26 29 24.6569 29 23C29 21.3431 27.6569 20 26 20C24.3431 20 23 21.3431 23 23C23 24.6569 24.3431 26 26 26ZM22 23C22 24.6569 20.6569 26 19 26C17.3431 26 16 24.6569 16 23C16 21.3431 17.3431 20 19 20C20.6569 20 22 21.3431 22 23ZM12 26C13.6569 26 15 24.6569 15 23C15 21.3431 13.6569 20 12 20C10.3431 20 9 21.3431 9 23C9 24.6569 10.3431 26 12 26Z" fill="white"/>
</g>
<defs>
<clipPath id="clip0_3129_607">
<rect width="45" height="45" rx="5" fill="white"/>
</clipPath>
</defs>
</svg>
