<svg width="45" height="45" viewBox="0 0 45 45" fill="none" xmlns="http://www.w3.org/2000/svg">
<g clip-path="url(#clip0_705_388)">
<path fill-rule="evenodd" clip-rule="evenodd" d="M0 5C0 2.23858 2.23858 0 5 0H40C42.7614 0 45 2.23858 45 5V40C45 42.7614 42.7614 45 40 45H5C2.23858 45 0 42.7614 0 40V5ZM35 13.3125V18.5625L22.5 23.8125L10 18.5625V13.3125C10 12.9644 10.1317 12.6306 10.3661 12.3844C10.6005 12.1383 10.9185 12 11.25 12H33.75C34.0815 12 34.3995 12.1383 34.6339 12.3844C34.8683 12.6306 35 12.9644 35 13.3125ZM10 31.6875V21.3896L22.5 26.6396L35 21.3896V31.6875C35 32.0356 34.8683 32.3694 34.6339 32.6156C34.3995 32.8617 34.0815 33 33.75 33H11.25C10.9185 33 10.6005 32.8617 10.3661 32.6156C10.1317 32.3694 10 32.0356 10 31.6875Z" fill="white"/>
</g>
<defs>
<clipPath id="clip0_705_388">
<rect width="45" height="45" rx="5" fill="white"/>
</clipPath>
</defs>
</svg>
