<svg width="45" height="45" viewBox="0 0 45 45" fill="none" xmlns="http://www.w3.org/2000/svg">
<g clip-path="url(#clip0_913_1977)">
<path fill-rule="evenodd" clip-rule="evenodd" d="M40 0H5C2.23858 0 0 2.23858 0 5V40C0 42.7614 2.23858 45 5 45H40C42.7614 45 45 42.7614 45 40V5C45 2.23858 42.7614 0 40 0ZM10.0139 23.6589C9.70332 16.2687 14.6192 10.4081 22.0663 10.0176C31.7803 9.50896 38.1028 20.1053 33.426 28.5917C30.9377 33.109 25.34 35.9211 20.2313 34.6924C19.0975 34.4193 18.1887 33.8145 17.2384 33.182L17.1718 33.1376C16.9362 33.4529 16.6291 33.7072 16.3078 33.9258C15.3654 34.5813 13.641 35.2978 12.5165 34.8715C11.7963 34.5976 11.7855 33.9301 11.7749 33.2702C11.772 33.0927 11.7692 32.9157 11.7525 32.7472C11.613 31.3525 11.2694 30.0169 10.9233 28.6713C10.5075 27.055 10.0879 25.4242 10.0139 23.6589ZM18.7498 28.0918C18.4895 28.3242 18.2246 28.5607 17.9358 28.7207C17.2896 29.0682 17.0897 28.7064 16.8469 28.1332C16.0829 26.3098 15.9901 23.204 16.4364 21.2946C17.0361 18.6975 19.0389 16.412 21.7914 16.1684C24.576 15.9212 27.1607 17.3398 28.3281 19.9011C30.9128 25.6005 24.2975 31.2283 19.1746 27.732V27.7284C19.0322 27.8396 18.8917 27.9651 18.7498 28.0918Z" fill="white"/>
</g>
<defs>
<clipPath id="clip0_913_1977">
<rect width="45" height="45" rx="5" fill="white"/>
</clipPath>
</defs>
</svg>
