<svg width="45" height="45" viewBox="0 0 45 45" fill="none" xmlns="http://www.w3.org/2000/svg">
<g clip-path="url(#clip0_705_385)">
<path d="M22.5 13C17.2533 13 13 17.2533 13 22.5C13 27.7467 17.2533 32 22.5 32V13Z" fill="white"/>
<path fill-rule="evenodd" clip-rule="evenodd" d="M5 0H40C42.7614 0 45 2.23858 45 5V40C45 42.7614 42.7614 45 40 45H5C2.23858 45 0 42.7614 0 40V5C0 2.23858 2.23858 0 5 0ZM33 22.5C33 16.701 28.299 12 22.5 12C16.701 12 12 16.701 12 22.5C12 28.299 16.701 33 22.5 33C28.299 33 33 28.299 33 22.5Z" fill="white"/>
</g>
<defs>
<clipPath id="clip0_705_385">
<rect width="45" height="45" rx="5" fill="white"/>
</clipPath>
</defs>
</svg>
