<svg width="45" height="45" viewBox="0 0 45 45" fill="none" xmlns="http://www.w3.org/2000/svg">
<g clip-path="url(#clip0_705_380)">
<path fill-rule="evenodd" clip-rule="evenodd" d="M5 0C2.23858 0 0 2.23858 0 5V40C0 42.7614 2.23858 45 5 45H40C42.7614 45 45 42.7614 45 40V5C45 2.23858 42.7614 0 40 0H5ZM30.5945 12.0801C31.5481 11.7957 32.0226 12.2512 31.9992 13.7291C31.96 14.0491 31.9184 14.3951 31.8746 14.7592C31.7698 15.6302 31.6525 16.6051 31.5263 17.5781C30.9548 21.9855 30.3787 26.392 29.7987 30.7976C29.7914 30.853 29.7844 30.9086 29.7775 30.9642C29.7243 31.3882 29.6708 31.8144 29.4939 32.2037C29.2117 32.8255 28.774 33.0901 28.1947 32.9729C27.5272 32.8378 26.9253 32.4995 26.3718 32.0506C25.883 31.6541 25.3908 31.2634 24.8986 30.8728C23.5643 29.8139 22.2297 28.7547 20.9626 27.577C20.8086 27.4334 20.6585 27.2803 20.5225 27.113C20.0981 26.5895 20.0754 25.9507 20.51 25.4451C21.2172 24.6213 21.931 23.8061 22.6448 22.9909C23.2068 22.3491 23.7689 21.7073 24.3277 21.0613C24.997 20.2863 25.6549 19.4968 26.3125 18.7076C26.3654 18.6442 26.4182 18.5808 26.4711 18.5174C26.6384 18.3171 26.7455 18.0591 26.8416 17.8011C26.901 17.6433 26.9526 17.4694 26.8393 17.3135C26.7252 17.1566 26.5798 17.2001 26.4399 17.2483C25.956 17.4136 25.5425 17.7453 25.1321 18.078C24.5125 18.5807 23.8917 19.0815 23.2709 19.5823C21.4786 21.028 19.6862 22.4738 17.9219 23.9681C16.9995 24.7487 16.0607 24.8791 15.0375 24.5578C13.8282 24.1779 12.6479 23.6789 11.4699 23.1781C10.9149 22.9428 10.8422 22.2718 11.3018 21.8116C11.6514 21.4621 12.0674 21.2637 12.4814 21.0663C12.5756 21.0214 12.6696 20.9765 12.7628 20.93C18.5124 18.0554 24.2644 15.1884 30.0164 12.3214L30.1138 12.2729C30.2693 12.1954 30.4311 12.1292 30.5945 12.0801Z" fill="white"/>
</g>
<defs>
<clipPath id="clip0_705_380">
<rect width="45" height="45" rx="5" fill="white"/>
</clipPath>
</defs>
</svg>
