<svg width="45" height="45" viewBox="0 0 45 45" fill="none" xmlns="http://www.w3.org/2000/svg">
<g clip-path="url(#clip0_705_382)">
<path fill-rule="evenodd" clip-rule="evenodd" d="M5 0C2.23858 0 0 2.23858 0 5V40C0 42.7614 2.23858 45 5 45H40C42.7614 45 45 42.7614 45 40V5C45 2.23858 42.7614 0 40 0H5ZM24.594 18.732H24.5995C24.5995 19.015 24.5992 19.2981 24.5989 19.581C24.5983 20.2031 24.5976 20.8248 24.6001 21.4453C24.6002 21.4602 24.6003 21.4751 24.6003 21.4902C24.6012 21.7761 24.6022 22.0853 24.8973 22.2356C25.2323 22.4067 25.5135 22.1941 25.758 21.9921C26.2566 21.5794 26.6885 21.0993 27.0616 20.5684C27.9891 19.248 28.8155 17.8663 29.4459 16.3754C29.9642 15.1482 30.1497 14.9999 31.4809 15.0154C31.7273 15.0182 31.974 15.0132 32.2207 15.0081C32.7795 14.9966 33.3384 14.9852 33.8947 15.0654C34.3792 15.1352 34.5629 15.4102 34.4521 15.8878C34.2543 16.7412 33.826 17.4919 33.3948 18.2383C32.553 19.696 31.6164 21.0931 30.6698 22.4827C30.4119 22.8615 30.4205 23.205 30.7127 23.5788C30.9925 23.9366 31.3119 24.2535 31.6311 24.5703C31.7761 24.7141 31.9211 24.858 32.0623 25.0056C32.942 25.9244 33.7727 26.8841 34.4901 27.9376C34.702 28.2484 34.8767 28.5925 34.9685 28.9664C35.088 29.4534 34.8619 29.8197 34.3848 29.9389C34.2243 29.9792 34.0638 29.9921 33.8995 29.9921C33.6779 29.9916 33.4563 29.9894 33.2347 29.9872C32.6702 29.9817 32.1059 29.9761 31.5428 29.9983C30.8322 30.0261 30.3133 29.7085 29.8637 29.2037L29.8171 29.1514L29.8155 29.1496C28.9659 28.1963 28.1158 27.2423 27.1382 26.4169C26.7792 26.1136 26.4 25.8355 25.9657 25.6445C25.8058 25.5741 25.6447 25.5123 25.47 25.4938C24.8819 25.4301 24.6038 25.6736 24.6001 26.2699C24.5975 26.7327 24.598 27.1956 24.5985 27.6584C24.599 28.0699 24.5994 28.4814 24.5977 28.8928C24.5953 29.5107 24.3998 29.7518 23.8019 29.8704C22.2943 30.1695 20.8601 29.8704 19.4707 29.2908C17.1134 28.307 15.411 26.5603 13.9965 24.4785C12.974 22.974 12.0526 21.41 11.2808 19.7627C10.776 18.685 10.3514 17.5698 10.0843 16.4032C10.0316 16.1745 10.0084 15.9354 10.0004 15.7006C9.99182 15.4423 10.1193 15.2477 10.3558 15.1377C10.5431 15.0505 10.7416 15.0135 10.95 15.0141C11.3757 15.0156 11.8014 15.0152 12.2271 15.0147C12.6585 15.0142 13.0898 15.0138 13.5211 15.0154C14.2323 15.0178 14.53 15.2421 14.7757 15.9113C15.5164 17.9313 16.3427 19.9098 17.563 21.6937C17.905 22.1929 18.2504 22.6909 18.7062 23.0969C18.7214 23.1104 18.7365 23.1242 18.7516 23.1379C18.7972 23.1794 18.8429 23.221 18.893 23.2563C19.4641 23.6586 19.8223 23.5097 19.924 22.8238C19.9468 22.6718 19.9516 22.5167 19.9516 22.3628C19.9527 21.8289 19.9525 21.2947 19.9522 20.7606C19.952 20.0809 19.9517 19.4011 19.9541 18.7216C19.9572 17.778 19.7611 16.908 19.1087 16.1851C18.9114 15.9663 18.7631 15.7043 18.917 15.3991C19.075 15.0852 19.3684 15.0109 19.6937 15.0116C20.2845 15.0127 20.8755 15.0125 21.4664 15.0123C22.212 15.012 22.9576 15.0117 23.7032 15.0141C24.322 15.0159 24.5848 15.2718 24.5915 15.8927C24.5984 16.5549 24.5968 17.2168 24.5953 17.8788C24.5946 18.1632 24.594 18.4476 24.594 18.732Z" fill="white"/>
</g>
<defs>
<clipPath id="clip0_705_382">
<rect width="45" height="45" rx="5" fill="white"/>
</clipPath>
</defs>
</svg>
