<svg width="263" height="175" viewBox="0 0 263 175" fill="none" xmlns="http://www.w3.org/2000/svg">
<rect y="88" width="3" height="5" fill="#E5FF8B"/>
<rect x="10" y="88" width="3" height="5" fill="#E5FF8B"/>
<rect x="21" y="85" width="3" height="11" fill="#E5FF8B"/>
<rect x="31" y="83" width="3" height="16" fill="#E5FF8B"/>
<rect x="41" y="58" width="3" height="66" fill="#E5FF8B"/>
<rect x="51" y="60" width="3" height="61" fill="#E5FF8B"/>
<rect x="62" y="72" width="3" height="37" fill="#E5FF8B"/>
<rect x="72" y="43" width="3" height="95" fill="#E5FF8B"/>
<rect x="82" y="52" width="3" height="78" fill="#E5FF8B"/>
<rect x="93" y="6" width="3" height="169" fill="#E5FF8B"/>
<rect x="103" y="15" width="3" height="151" fill="#E5FF8B"/>
<rect x="113" y="31" width="3" height="119" fill="#E5FF8B"/>
<rect x="124" y="21" width="3" height="140" fill="#E5FF8B"/>
<rect x="134" y="49" width="3" height="84" fill="#E5FF8B"/>
<rect x="144" y="66" width="3" height="49" fill="#E5FF8B"/>
<rect x="154" y="75" width="3" height="31" fill="#E5FF8B"/>
<rect x="165" y="63" width="3" height="55" fill="#E5FF8B"/>
<rect x="175" y="75" width="3" height="31" fill="#E5FF8B"/>
<rect x="185" y="13" width="3" height="155" fill="#E5FF8B"/>
<circle cx="186.5" cy="6.5" r="6.5" fill="#E5FF8B"/>
<rect x="196" y="60" width="3" height="61" fill="#E5FF8B"/>
<rect x="206" y="78" width="3" height="25" fill="#E5FF8B"/>
<rect x="216" y="72" width="3" height="37" fill="#E5FF8B"/>
<rect x="227" y="75" width="3" height="31" fill="#E5FF8B"/>
<rect x="237" y="80" width="3" height="22" fill="#E5FF8B"/>
<rect x="247" y="84" width="3" height="13" fill="#E5FF8B"/>
<rect x="257" y="81" width="3" height="19" fill="#E5FF8B"/>
</svg>
