<svg width="233" height="174" viewBox="0 0 233 174" fill="none" xmlns="http://www.w3.org/2000/svg">
<path d="M30.9202 128.367L61.6248 66.225C62.4676 64.5195 64.2051 63.4399 66.1075 63.4399L184.661 63.4399C185.407 63.4399 185.891 64.2281 185.552 64.8934L178.735 78.2911L203.654 78.1554M30.9202 128.367L15.5856 128.451L44.3485 32.1983M30.9202 128.367L8.91741 171.611M44.3485 32.1983L52.605 4.56838C53.2378 2.45087 55.1857 0.999962 57.3957 0.999962L231.064 0.999967C232.474 0.999967 233.442 2.41985 232.926 3.73201L203.654 78.1554M44.3485 32.1983L5.97365 32.4055C3.22281 32.4203 1.00065 34.6545 1.00065 37.4054L1.00065 168.901C1.00065 171.11 2.79151 172.901 5.00065 172.901L184.061 172.901C187.823 172.901 191.267 170.789 192.974 167.436L237.008 80.8905C237.687 79.5556 236.712 77.9754 235.214 77.9836L203.654 78.1554M67.0002 43.1305L116.342 43.1305M69.0002 32.4323L158.303 32.0413" stroke="#DCFF5C" stroke-width="2" stroke-linecap="round"/>
</svg>
