<svg width="233" height="138" viewBox="0 0 233 138" fill="none" xmlns="http://www.w3.org/2000/svg">
<path d="M1 1L42.393 42.393M270.585 1L229.192 42.393M229.192 42.393H42.393M229.192 42.393L202.658 68.9269M42.393 42.393L68.9269 68.9269M68.9269 68.9269H202.658M68.9269 68.9269L97.5836 97.5836M202.658 68.9269L174.001 97.5836M174.001 97.5836L135.792 135.792L97.5836 97.5836M174.001 97.5836H97.5836" stroke="#DCFF5C" stroke-width="2" stroke-linecap="round"/>
<path d="M136.279 21.7822V29.5012H135.111V22.9506H135.066L133.219 24.1567V23.0411L135.145 21.7822H136.279Z" fill="#DCFF5C"/>
<path d="M133.351 59.2192V58.3749L135.963 55.6687C136.242 55.3747 136.472 55.1172 136.653 54.8961C136.836 54.6725 136.973 54.4601 137.064 54.2591C137.154 54.0581 137.199 53.8445 137.199 53.6184C137.199 53.3621 137.139 53.141 137.019 52.955C136.898 52.7666 136.733 52.6221 136.525 52.5216C136.316 52.4186 136.081 52.3671 135.82 52.3671C135.544 52.3671 135.302 52.4236 135.096 52.5367C134.89 52.6497 134.732 52.8093 134.621 53.0153C134.511 53.2214 134.456 53.4626 134.456 53.739H133.344C133.344 53.2691 133.452 52.8583 133.668 52.5065C133.884 52.1547 134.18 51.8821 134.557 51.6886C134.934 51.4926 135.363 51.3947 135.843 51.3947C136.328 51.3947 136.755 51.4914 137.124 51.6849C137.496 51.8758 137.786 52.1372 137.995 52.4688C138.203 52.798 138.308 53.1699 138.308 53.5845C138.308 53.8709 138.254 54.1511 138.145 54.425C138.04 54.6988 137.855 55.0041 137.591 55.3408C137.328 55.675 136.961 56.0808 136.491 56.5582L134.957 58.1638V58.2204H138.432V59.2192H133.351Z" fill="#DCFF5C"/>
<path d="M136.038 89.0426C135.52 89.0426 135.058 88.9534 134.651 88.775C134.246 88.5966 133.926 88.3491 133.689 88.0325C133.456 87.7134 133.33 87.344 133.312 86.9244H134.496C134.511 87.153 134.588 87.3515 134.726 87.5199C134.867 87.6857 135.05 87.8139 135.276 87.9043C135.502 87.9948 135.754 88.04 136.03 88.04C136.334 88.04 136.603 87.9873 136.837 87.8817C137.073 87.7762 137.257 87.6292 137.391 87.4407C137.524 87.2498 137.59 87.0299 137.59 86.7812C137.59 86.5224 137.524 86.295 137.391 86.099C137.26 85.9005 137.068 85.7447 136.814 85.6316C136.563 85.5185 136.259 85.462 135.902 85.462H135.25V84.5122H135.902C136.188 84.5122 136.44 84.4607 136.656 84.3577C136.874 84.2547 137.045 84.1114 137.168 83.928C137.291 83.7421 137.353 83.5247 137.353 83.276C137.353 83.0373 137.299 82.83 137.191 82.6541C137.085 82.4757 136.935 82.3362 136.739 82.2357C136.545 82.1352 136.316 82.085 136.053 82.085C135.801 82.085 135.566 82.1314 135.348 82.2244C135.132 82.3149 134.956 82.4455 134.82 82.6164C134.684 82.7847 134.612 82.987 134.602 83.2232H133.475C133.487 82.8061 133.61 82.4392 133.844 82.1226C134.08 81.806 134.392 81.5586 134.779 81.3801C135.166 81.2017 135.595 81.1125 136.068 81.1125C136.563 81.1125 136.99 81.2093 137.349 81.4028C137.711 81.5937 137.99 81.8488 138.186 82.1679C138.384 82.487 138.482 82.8363 138.48 83.2157C138.482 83.6478 138.362 84.0147 138.118 84.3162C137.877 84.6177 137.555 84.82 137.153 84.923V84.9833C137.666 85.0612 138.063 85.2648 138.344 85.5939C138.628 85.9231 138.769 86.3314 138.766 86.8189C138.769 87.2435 138.651 87.6242 138.412 87.9609C138.176 88.2976 137.853 88.5627 137.443 88.7561C137.034 88.9471 136.565 89.0426 136.038 89.0426Z" fill="#DCFF5C"/>
<path d="M133.189 115.025V114.083L136.525 108.813H137.268V110.2H136.796L134.411 113.977V114.037H138.982V115.025H133.189ZM136.849 116.532V114.738L136.857 114.309V108.813H137.961V116.532H136.849Z" fill="#DCFF5C"/>
</svg>
