<svg width="304" height="303" viewBox="0 0 304 303" fill="none" xmlns="http://www.w3.org/2000/svg">
<path d="M297.15 49.1854C285.985 29.2676 231.756 38.4446 176.026 69.683C131.511 94.6346 99.5024 126.114 94.1115 147.924" stroke="#DCFF5C" stroke-width="2" stroke-dasharray="5 5"/>
<path d="M297.149 49.1839C298.975 52.4415 299.536 56.2756 298.953 60.5472C295.971 82.3931 263.07 115.681 216.455 141.81C160.724 173.049 106.495 182.226 95.3307 162.308C93.0839 158.299 92.7525 153.418 94.1107 147.923" stroke="#DCFF5C" stroke-width="2"/>
<path d="M231.778 215.807C253.681 209.354 256.8 154.442 238.744 93.1584C224.322 44.2078 200.753 5.99768 180.689 -4.11075" stroke="#DCFF5C" stroke-width="2" stroke-dasharray="5 5"/>
<path d="M231.779 215.807C228.197 216.863 224.334 216.557 220.299 215.038C199.664 207.27 174.531 167.788 159.428 116.527C141.373 55.2432 144.492 0.331603 166.394 -6.12134C170.802 -7.41999 175.635 -6.65705 180.69 -4.11019" stroke="#DCFF5C" stroke-width="2"/>
<path d="M94.1461 58.3477C84.2899 78.9443 123.018 117.998 180.648 145.576C226.679 167.604 270.847 175.647 291.783 167.497" stroke="#DCFF5C" stroke-width="2" stroke-dasharray="5 5"/>
<path d="M94.1476 58.3472C95.7596 54.9785 98.5714 52.3122 102.4 50.3293C121.977 40.1882 168.138 47.9206 216.342 70.9882C273.971 98.5662 312.699 137.619 302.843 158.216C300.859 162.361 297.059 165.443 291.785 167.496" stroke="#DCFF5C" stroke-width="2"/>
<path d="M238.887 6.55137L224.248 42.5546M149.727 221.983L174.624 164.599M204.897 90.1459C204.435 89.9466 203.96 89.7665 203.473 89.6068C194.769 86.7546 185.402 91.4981 182.549 100.202C179.779 108.656 184.175 117.737 192.407 120.864M204.897 90.1459C212.684 93.5059 216.76 102.314 214.068 110.53C211.215 119.234 201.848 123.977 193.144 121.125C192.895 121.043 192.649 120.956 192.407 120.864M204.897 90.1459L219.893 53.2639M192.407 120.864L178.403 155.305" stroke="#DCFF5C" stroke-width="2"/>
<circle cx="242.746" cy="41.7434" r="4.27661" transform="rotate(20.9282 242.746 41.7434)" fill="white" stroke="#DCFF5C" stroke-width="2"/>
<circle cx="243.99" cy="203.09" r="4.27661" transform="rotate(20.9282 243.99 203.09)" fill="white" stroke="#DCFF5C" stroke-width="2"/>
<circle cx="109.461" cy="96.2251" r="4.27661" transform="rotate(20.9282 109.461 96.2251)" fill="white" stroke="#DCFF5C" stroke-width="2"/>
</svg>
