<svg width="1133" height="343" viewBox="0 0 1133 343" fill="none" xmlns="http://www.w3.org/2000/svg">
<path d="M566.594 343C529.121 343 496.478 335.982 468.665 321.946C440.853 307.618 419.335 287.588 404.112 261.855C389.181 236.123 381.716 206.005 381.716 171.5C381.716 136.995 389.181 106.877 404.112 81.1445C419.335 55.4122 440.853 35.5281 468.665 21.4923C496.478 7.16411 529.121 0 566.594 0C603.775 0 636.125 7.16411 663.644 21.4923C691.457 35.5281 712.974 55.4122 728.198 81.1445C743.422 106.877 751.033 136.995 751.033 171.5C751.033 206.005 743.422 236.123 728.198 261.855C712.974 287.588 691.457 307.618 663.644 321.946C636.125 335.982 603.775 343 566.594 343ZM566.594 269.312C596.163 269.312 619.145 260.832 635.539 243.872C651.934 226.62 660.131 202.496 660.131 171.5C660.131 140.212 651.934 116.088 635.539 99.1279C619.145 82.1679 596.163 73.688 566.594 73.688C537.025 73.688 513.897 82.1679 497.21 99.1279C480.522 116.088 472.179 140.212 472.179 171.5C472.179 202.496 480.522 226.62 497.21 243.872C513.897 260.832 537.025 269.312 566.594 269.312Z" fill="white"/>
<path fill-rule="evenodd" clip-rule="evenodd" d="M990.279 335.982H1080.3V274.575V207.467V7.01789H965.248L779.93 210.537V274.575H973.047V207.467H872.509L990.279 77.4702V207.467V274.575V335.982ZM1093.6 274.575H1133L1093.6 207.467V274.575Z" fill="white"/>
<path fill-rule="evenodd" clip-rule="evenodd" d="M210.349 335.982H300.373V274.575V207.467V7.01789H185.318L0 210.537V274.575H193.117V207.467H92.5784L210.349 77.4702V207.467V274.575V335.982ZM313.665 274.575H353.07L313.665 207.467V274.575Z" fill="white"/>
</svg>
