<svg width="623" height="547" viewBox="0 0 623 547" fill="none" xmlns="http://www.w3.org/2000/svg">
<path d="M86.9609 465.578L123.829 447.492L160.697 465.578V511.118L123.829 529.421L86.9609 511.118V465.578Z" fill="#282631"/>
<path d="M123.829 529.421L160.697 511.118V465.578L123.829 447.492L86.9609 465.578V511.118L123.829 529.421ZM86.9609 465.578L123.829 483.881M160.697 465.578L123.829 483.881M123.829 483.881L123.829 529.421" stroke="white" stroke-width="0.7"/>
<path data-blok="van" d="M0.349609 143.466L72.3303 108.07L144.311 143.466V232.595L72.3303 268.417L0.349609 232.595V143.466Z" fill="white"/>
<path data-blok="van" d="M72.3303 268.418L144.311 232.595V143.466L72.3303 108.07L0.349609 143.466V232.595L72.3303 268.418ZM0.349609 143.466L72.3303 179.288M144.311 143.466L72.3303 179.288M72.3303 179.288L72.3303 268.418" stroke="#787878" stroke-width="0.7"/>
<path d="M323.385 18.4761L360.253 0.390625L397.121 18.4761V64.0165L360.253 82.3198L323.385 64.0165V18.4761Z" fill="#282631"/>
<path d="M360.253 82.3198L397.121 64.0165V18.4761L360.253 0.390625L323.385 18.4761V64.0165L360.253 82.3198ZM323.385 18.4761L360.253 36.7794M397.121 18.4761L360.253 36.7794M360.253 36.7794L360.253 82.3198" stroke="white" stroke-width="0.7"/>
<path fill-rule="evenodd" clip-rule="evenodd" d="M476.709 209.957L299.391 298.859L299.391 520.055L476.709 431.153V209.957ZM341.526 329.993L439.255 281.359V402.366L341.526 451.001V350.93V329.993Z" fill="#BFEF0A"/>
<path d="M341.526 451.001L439.255 402.366L341.526 350.93V451.001Z" fill="#D4F853"/>
<path d="M439.255 281.359L341.526 329.993V350.93L439.255 402.366V281.359Z" fill="#A8D307"/>
<path d="M299.391 520.055L299.391 298.859L194.053 246V259.052L194.053 335.129L122.072 299.307V431.153L186.445 463.129V417.589L223.313 435.892V445.148V481.912L299.391 520.055Z" fill="#D4F853"/>
<path d="M223.313 435.892L186.445 417.589V463.129L223.313 445.148V435.892Z" fill="#A8D307"/>
<path d="M122.072 299.307L194.053 335.129L194.053 259.052L122.072 299.307Z" fill="#BFEF0A"/>
<path d="M266.034 210.178L194.053 174.782V246L266.034 210.178Z" fill="#A8D307"/>
<path d="M299.391 298.859L476.709 209.957L397.12 170.63L360.252 188.933L323.384 170.63L360.252 152.544L299.391 122.113L194.053 174.782L266.034 210.178L194.053 246L299.391 298.859Z" fill="#E5FF8B"/>
<path d="M360.252 152.544L323.384 170.63L360.252 188.933V152.544Z" fill="#A8D307"/>
<path data-blok="tu" d="M426.967 374.924L524.697 326.352L622.427 374.924V497.232L524.697 546.39L426.967 497.232V374.924Z" fill="white"/>
<path data-blok="tu" d="M524.697 546.39L622.427 497.232V374.924L524.697 326.352L426.967 374.924V497.232L524.697 546.39ZM426.967 374.924L524.697 424.081M622.427 374.924L524.697 424.081M524.697 424.081L524.697 546.39" stroke="#787878" stroke-width="0.7"/>
</svg>
