<svg  viewBox="0 0 64 64"
  preserveAspectRatio="xMidYMid meet" fill="none" xmlns="http://www.w3.org/2000/svg">
<path d="M28.2019 33.9759C27.0026 33.9759 26.0539 35.0257 26.2796 36.2235C26.9572 39.8202 28.4649 43.1169 30.5933 45.9003C31.3134 46.8421 32.6859 46.8421 33.4061 45.9003C35.5346 43.1169 37.0423 39.8205 37.7197 36.2235C37.9454 35.0257 36.9968 33.9759 35.7975 33.9759H28.2019Z" fill="white"/>
<path d="M44.017 33.9759C42.9499 33.9759 42.0719 34.8136 41.9153 35.8869C41.206 40.7555 39.2172 45.2006 36.3099 48.8558C35.6812 49.6461 35.7712 50.8217 36.5616 51.444C36.9797 51.7731 37.5262 51.89 38.0312 51.7312C45.0285 49.533 50.4178 43.6097 51.9595 36.2395C52.2107 35.0392 51.259 33.9759 50.0521 33.9759H44.017Z" fill="white"/>
<path d="M13.9478 33.9759C12.741 33.9759 11.7894 35.0392 12.0405 36.2395C13.6374 43.8737 19.3623 49.9552 26.7264 51.953C27.2256 52.0883 27.7534 51.9246 28.1137 51.5482C28.6716 50.965 28.6729 50.0405 28.1531 49.4221C24.9939 45.6638 22.8311 41.0099 22.0846 35.8869C21.9282 34.8136 21.0499 33.9759 19.983 33.9759H13.9478Z" fill="white"/>
<path d="M51.9595 27.562C52.2105 28.7622 51.259 29.8255 50.0521 29.8255H44.017C42.9499 29.8255 42.0717 28.9877 41.9153 27.9144C41.206 23.0458 39.2172 18.6007 36.3099 14.9455C35.6812 14.1553 35.7712 12.9797 36.5616 12.3574C36.9797 12.0283 37.5262 11.9114 38.0312 12.0701C45.0285 14.2685 50.4178 20.1916 51.9595 27.562Z" fill="white"/>
<path d="M37.7199 27.5778C37.9454 28.7757 36.9968 29.8255 35.7975 29.8255H28.2019C27.0026 29.8255 26.0539 28.7756 26.2796 27.5778C26.9572 23.981 28.4649 20.6844 30.5933 17.901C31.3134 16.9593 32.6859 16.9593 33.4061 17.901C35.5346 20.6844 37.0423 23.981 37.7199 27.5778Z" fill="white"/>
<path d="M25.9655 12.0711C26.4723 11.9118 27.0205 12.0296 27.4392 12.3608C28.2274 12.9843 28.3162 14.1583 27.6882 14.9479C24.7819 18.6026 22.7939 23.0468 22.0846 27.9143C21.9282 28.9875 21.05 29.8255 19.983 29.8255H13.9478C12.7411 29.8255 11.7894 28.7622 12.0405 27.5619C13.5819 20.1926 18.9698 14.2702 25.9655 12.0711Z" fill="white"/>
</svg>
