<svg  preserveAspectRatio="xMidYMid meet"  viewBox="0 0 64 64" fill="none" xmlns="http://www.w3.org/2000/svg">
<path d="M32.0036 48C35.2152 47.9991 38.3599 47.0811 41.0684 45.3538L49 48L46.3561 40.0614C48.3645 36.8706 49.2558 33.102 48.8898 29.3487C48.5238 25.5954 46.9213 22.0704 44.3344 19.3285C41.7476 16.5866 38.3233 14.7834 34.6004 14.2028C30.8775 13.6221 27.0674 14.2969 23.7696 16.1209C20.4719 17.945 17.8737 20.8147 16.384 24.2786C14.8943 27.7425 14.5976 31.6038 15.5406 35.2549C16.4837 38.906 18.6129 42.1396 21.5932 44.4469C24.5736 46.7542 28.2358 48.0041 32.0036 48ZM24.4497 24.3731H39.5576C40.0584 24.3731 40.5388 24.5723 40.8929 24.9268C41.2471 25.2812 41.4461 25.762 41.4461 26.2633C41.4461 26.7646 41.2471 27.2454 40.8929 27.5998C40.5388 27.9543 40.0584 28.1534 39.5576 28.1534H24.4497C23.9488 28.1534 23.4685 27.9543 23.1143 27.5998C22.7602 27.2454 22.5612 26.7646 22.5612 26.2633C22.5612 25.762 22.7602 25.2812 23.1143 24.9268C23.4685 24.5723 23.9488 24.3731 24.4497 24.3731ZM24.4497 33.8239H32.0036C32.5045 33.8239 32.9848 34.023 33.339 34.3775C33.6931 34.732 33.8921 35.2127 33.8921 35.714C33.8921 36.2153 33.6931 36.6961 33.339 37.0506C32.9848 37.405 32.5045 37.6042 32.0036 37.6042H24.4497C23.9488 37.6042 23.4685 37.405 23.1143 37.0506C22.7602 36.6961 22.5612 36.2153 22.5612 35.714C22.5612 35.2127 22.7602 34.732 23.1143 34.3775C23.4685 34.023 23.9488 33.8239 24.4497 33.8239Z" fill="white"/>
</svg>
