<svg preserveAspectRatio="xMidYMid meet" viewBox="0 0 64 64" fill="none" xmlns="http://www.w3.org/2000/svg">
<path fill-rule="evenodd" clip-rule="evenodd" d="M39.8433 12C42.1364 12 44 13.9106 44 16.2722V47.7278C44 50.0894 42.1364 52 39.8433 52H24.1567C21.8636 52 20 50.0894 20 47.7278L20 16.2722C20 13.9106 21.8636 12 24.1567 12H39.8433ZM28.0387 14.1586C26.9448 14.1586 26.058 14.7672 26.058 15.518V16.8773C26.058 17.6281 26.9448 18.2367 28.0387 18.2367H35.9613C37.0552 18.2367 37.942 17.6281 37.942 16.8773V15.518C37.942 14.7672 37.0552 14.1586 35.9613 14.1586H28.0387ZM38.6847 46.783C38.6847 46.3607 38.3522 46.0183 37.942 46.0183H26.058C25.6478 46.0183 25.3153 46.3607 25.3153 46.783C25.3153 47.2052 25.6478 47.5476 26.058 47.5476H37.942C38.3522 47.5476 38.6847 47.2052 38.6847 46.783Z" fill="white"/>
</svg>
