<svg viewBox="0 0 354 259" fill="none" xmlns="http://www.w3.org/2000/svg">
<g filter="url(#filter0_f_522_353)">
<path d="M174.46 149.21C257.884 123.017 356.875 132.886 362 149.21C367.125 165.533 319.609 191.627 259.501 210.5C199.393 229.372 37.8138 242.516 32.6886 226.193C27.5634 209.869 91.0369 175.403 174.46 149.21Z" fill="url(#paint0_linear_522_353)" fill-opacity="0.3"/>
</g>
<path d="M141.109 0C97.8798 0 62.8353 34.9676 62.8353 78.1024C62.8353 92.162 66.5585 105.354 73.0747 116.75C76.7942 123.255 81.4239 129.175 86.7906 134.338C89.9357 137.363 93.3339 140.128 96.9505 142.598C106.504 149.123 117.58 153.589 129.538 155.357C143.555 150.051 159.33 142.285 175.343 132.467C190.769 123.008 204.393 112.884 215.275 103.141C217.939 95.2813 219.384 86.8602 219.384 78.1024C219.384 74.664 219.161 71.2774 218.729 67.9563C217.168 55.9481 212.873 44.7959 206.489 35.1413C192.487 13.9695 168.433 0 141.109 0Z" fill="url(#paint1_linear_522_353)"/>
<path d="M26.1125 218.566C40.4147 241.789 117.165 220.662 197.54 171.379C240.896 144.794 276.451 115.447 297.76 90.4079C315.954 69.029 323.762 50.7909 317.175 40.0951L308.108 24.8082C309.612 27.4432 310.276 30.5165 310.158 33.9657C309.218 61.282 259.165 112.176 188.225 155.675C116.798 199.471 48.2336 221.032 23.8149 208.991C20.7559 207.483 18.3896 205.447 16.7974 202.862L23.4029 213.998L26.1125 218.566Z" fill="#A8D307"/>
<path d="M79.9459 157.994C81.4675 160.465 84.1974 162.074 87.9216 162.88C87.7334 157.489 90.9736 150.466 96.9505 142.598C93.3339 140.128 89.9357 137.363 86.7906 134.338C79.4554 144.289 76.6921 152.711 79.9459 157.994Z" fill="#A8D307"/>
<path fill-rule="evenodd" clip-rule="evenodd" d="M79.9459 157.994C81.4675 160.465 84.1974 162.074 87.9216 162.88C96.958 164.834 111.848 162.054 129.538 155.357C143.555 150.051 159.33 142.285 175.343 132.467C190.769 123.008 204.393 112.884 215.275 103.141C229.315 90.5705 238.79 78.6342 241.682 69.5793C243.02 65.3873 242.948 61.8128 241.264 59.0788C237.915 53.6409 228.54 52.2656 215.766 54.5621C213.569 47.6192 210.426 41.0955 206.489 35.1413C257.389 13.5897 297.867 8.16519 307.86 24.3908L308.108 24.8082C309.612 27.4432 310.276 30.5165 310.158 33.9657C309.218 61.282 259.165 112.176 188.225 155.675C116.798 199.471 48.2336 221.032 23.8149 208.991C20.7559 207.483 18.3896 205.447 16.7974 202.862C6.73629 186.525 30.2591 152.594 73.0747 116.75C76.7942 123.255 81.4239 129.175 86.7906 134.338C79.4554 144.289 76.6921 152.711 79.9459 157.994Z" fill="#DCFF5C"/>
<path d="M241.682 69.5793C243.02 65.3873 242.948 61.8128 241.264 59.0788C237.915 53.6409 228.54 52.2656 215.766 54.5621C217.131 58.877 218.131 63.3538 218.729 67.9563C229.007 66.1001 237.057 66.5387 241.682 69.5793Z" fill="#A8D307"/>
<defs>
<filter id="filter0_f_522_353" x="7.69844" y="108.357" width="379.38" height="149.932" filterUnits="userSpaceOnUse" color-interpolation-filters="sRGB">
<feFlood flood-opacity="0" result="BackgroundImageFix"/>
<feBlend mode="normal" in="SourceGraphic" in2="BackgroundImageFix" result="shape"/>
<feGaussianBlur stdDeviation="12.35" result="effect1_foregroundBlur_522_353"/>
</filter>
<linearGradient id="paint0_linear_522_353" x1="67.5" y1="216" x2="329" y2="176" gradientUnits="userSpaceOnUse">
<stop/>
<stop offset="1" stop-opacity="0"/>
</linearGradient>
<linearGradient id="paint1_linear_522_353" x1="166.986" y1="0" x2="166.986" y2="228" gradientUnits="userSpaceOnUse">
<stop stop-color="#DCFF5C"/>
<stop offset="1" stop-color="#8EB400"/>
</linearGradient>
</defs>
</svg>
