<svg viewBox="0 0 354 250" fill="none" xmlns="http://www.w3.org/2000/svg">
<g filter="url(#filter0_f_522_349)">
<path d="M115 55.4551H355L305 221.455H65L115 55.4551Z" fill="black" fill-opacity="0.1"/>
</g>
<path d="M309.466 6.33196L266.471 155.883C265.248 160.139 261.348 163.071 256.912 163.071H251.702C248.906 163.071 246.434 164.885 245.6 167.549L230.619 215.399C230.154 216.885 228.376 217.319 227.268 216.443L237.588 231.483C238.702 232.729 240.754 232.266 241.223 230.663L256.014 183.572C256.988 180.246 260.043 177.96 263.514 177.96H269.249C273.685 177.96 277.584 175.028 278.808 170.772L321.803 21.2211C322.216 19.7835 321.952 18.3483 321.232 17.2086L308.599 1.89906C309.537 3.09365 309.932 4.71131 309.466 6.33196Z" fill="#A8D307"/>
<path d="M21.1159 176.945C21.7488 177.568 22.6193 177.96 23.6042 177.96H202.788L195.671 166.707C194.24 164.444 191.746 163.071 189.064 163.071H11.2677C10.2722 163.071 9.39356 162.67 8.75898 162.036L21.1159 176.945Z" fill="#A8D307"/>
<path d="M243.303 98.5517H59.7971C58.5498 98.5517 57.4483 99.3637 57.0814 100.554L52.8644 114.233C52.6573 114.905 52.7991 115.581 53.1668 116.095C53.5479 116.627 54.1716 116.986 54.9012 116.986H237.97C238.906 116.986 239.732 116.377 240.007 115.484L244.661 100.387C244.771 100.029 244.733 99.6701 244.589 99.3654L244.348 99.0084C244.092 98.7305 243.724 98.5517 243.303 98.5517Z" fill="#E5FF8B"/>
<path d="M241.428 117.611L246.082 102.514C246.227 102.044 246.115 101.57 245.842 101.222L244.589 99.3654C244.733 99.6701 244.771 100.029 244.661 100.387L240.007 115.484C239.732 116.377 238.906 116.986 237.97 116.986H54.9012C54.1716 116.986 53.5479 116.627 53.1668 116.095L54.6892 118.353C55.0747 118.812 55.6539 119.113 56.3219 119.113H239.391C240.326 119.113 241.152 118.504 241.428 117.611Z" fill="#A8D307"/>
<path d="M259.598 41.1223L76.0918 41.1223C74.8444 41.1223 73.7429 41.9343 73.3761 43.1243L69.1591 56.8039C68.952 57.4756 69.0938 58.1514 69.4615 58.6653C69.8426 59.1978 70.4663 59.5564 71.1959 59.5564L254.265 59.5564C255.2 59.5564 256.026 58.9474 256.302 58.0549L260.956 42.9573C261.066 42.5999 261.028 42.2407 260.883 41.9361L260.642 41.579C260.386 41.3011 260.019 41.1223 259.598 41.1223Z" fill="#E5FF8B"/>
<path fill-rule="evenodd" clip-rule="evenodd" d="M304.687 0L60.3927 0C56.2737 0 52.6527 2.72294 51.5166 6.67477L7.85382 158.548C7.5459 159.619 7.76437 160.689 8.32986 161.518L8.75898 162.036C9.39356 162.67 10.2722 163.071 11.2677 163.071H189.064C191.746 163.071 194.24 164.444 195.671 166.707L202.788 177.96L226.783 215.9L227.268 216.443C228.376 217.319 230.154 216.885 230.619 215.399L245.6 167.549C246.434 164.885 248.906 163.071 251.702 163.071H256.912C261.348 163.071 265.248 160.139 266.471 155.883L309.466 6.33196C309.932 4.71131 309.537 3.09365 308.599 1.89906L308.446 1.71408C307.546 0.67496 306.215 0 304.687 0ZM243.303 98.5517H59.7971C58.5498 98.5517 57.4483 99.3637 57.0814 100.554L52.8644 114.233C52.6573 114.905 52.7991 115.581 53.1668 116.095L54.6892 118.353C55.0747 118.812 55.6539 119.113 56.3219 119.113H239.391C240.326 119.113 241.152 118.504 241.428 117.611L246.082 102.514C246.227 102.044 246.115 101.57 245.842 101.222L244.589 99.3654L244.348 99.0084C244.092 98.7305 243.724 98.5517 243.303 98.5517ZM259.598 41.1223L76.0918 41.1223C74.8444 41.1223 73.7429 41.9343 73.3761 43.1243L69.1591 56.8039C68.952 57.4756 69.0938 58.1514 69.4615 58.6653L70.9839 60.9235C71.3694 61.3829 71.9486 61.6834 72.6165 61.6834L255.685 61.6834C256.621 61.6834 257.447 61.0744 257.722 60.1819L262.376 45.0843C262.521 44.6141 262.41 44.141 262.137 43.7929L260.883 41.9361L260.642 41.579C260.386 41.3011 260.019 41.1223 259.598 41.1223Z" fill="#D4F853"/>
<path d="M257.722 60.1819L262.376 45.0843C262.521 44.6141 262.41 44.141 262.137 43.7929L260.883 41.9361C261.028 42.2407 261.066 42.5999 260.956 42.9573L256.302 58.0549C256.026 58.9474 255.2 59.5564 254.265 59.5564L71.1959 59.5564C70.4663 59.5564 69.8426 59.1978 69.4615 58.6653L70.9839 60.9235C71.3694 61.3829 71.9486 61.6834 72.6165 61.6834L255.685 61.6834C256.621 61.6834 257.447 61.0744 257.722 60.1819Z" fill="#A8D307"/>
<defs>
<filter id="filter0_f_522_349" x="37" y="27.4551" width="346" height="222" filterUnits="userSpaceOnUse" color-interpolation-filters="sRGB">
<feFlood flood-opacity="0" result="BackgroundImageFix"/>
<feBlend mode="normal" in="SourceGraphic" in2="BackgroundImageFix" result="shape"/>
<feGaussianBlur stdDeviation="14" result="effect1_foregroundBlur_522_349"/>
</filter>
</defs>
</svg>
