<svg viewBox="0 0 354 359" fill="none" xmlns="http://www.w3.org/2000/svg">
<g filter="url(#filter0_f_522_348)">
<ellipse cx="205.375" cy="229.315" rx="67.8158" ry="111.922" transform="rotate(-87.6221 205.375 229.315)" fill="black" fill-opacity="0.15"/>
</g>
<path d="M223.566 244.711L185.787 222.792L185.638 290L223.566 267.839V244.711Z" fill="#A8D307"/>
<path d="M110.009 245.715L185.638 290L185.787 222.792L167.822 212.344L110.009 245.715Z" fill="#BFEF0A"/>
<path d="M223.566 244.711V201.221L146.945 156.731V200.221L167.822 212.344L185.787 222.792L223.566 244.711Z" fill="#D4F853"/>
<path d="M223.566 244.711L301 201.772V156.079L223.566 201.221V244.711Z" fill="#A8D307"/>
<path d="M223.566 201.221L301 156.079L282.316 145.354L223.831 111.782L224.002 134.161L185.933 156.731L167.183 145.171L146.945 156.731L223.566 201.221Z" fill="#E5FF8B"/>
<path d="M281.692 56.4608L242.45 79.5629L223.667 90.349L223.831 111.782L282.316 145.354L281.692 56.4608Z" fill="#A8D307"/>
<path d="M242.45 79.5629L281.692 56.4608L242.128 34.8699L223.324 45.5287L223.667 90.349L242.45 79.5629Z" fill="#DCFF5C"/>
<path d="M223.315 44.329L186.131 67.3385L185.933 156.731L224.002 134.161L223.831 111.782L223.667 90.349L223.324 45.5287L223.315 44.329Z" fill="#BFEF0A"/>
<path d="M223.315 44.329L147.612 0L108.231 23.0095L186.131 67.3385L223.315 44.329Z" fill="#E5FF8B"/>
<path d="M186.131 67.3385L108.231 23.0095L108.913 112.207L127.642 101.334L167.183 122.785V145.171L185.933 156.731L186.131 67.3385Z" fill="#D4F853"/>
<path d="M51.6853 145.431L90.1505 167.021L109.249 156.054L167.183 122.785L127.642 101.334L108.913 112.207L89.5876 123.427L52.7705 144.801L51.6853 145.431Z" fill="#DCFF5C"/>
<path d="M90.1505 167.021L90.7815 256.813L110.009 245.715L167.822 212.344L146.945 200.221V156.731L167.183 145.171V122.785L109.249 156.054L90.1505 167.021Z" fill="#A8D307"/>
<path d="M51.6853 145.431L52.3163 234.121L90.7815 256.813L90.1505 167.021L51.6853 145.431Z" fill="#BFEF0A"/>
<path d="M33 90.569V134.059L52.7705 144.801L89.5876 123.427L33 90.569Z" fill="#BFEF0A"/>
<path d="M108.402 45.3946L33 90.569L89.5876 123.427L108.913 112.207L108.402 45.3946Z" fill="#E5FF8B"/>
<defs>
<filter id="filter0_f_522_348" x="32.4137" y="100.296" width="345.923" height="258.038" filterUnits="userSpaceOnUse" color-interpolation-filters="sRGB">
<feFlood flood-opacity="0" result="BackgroundImageFix"/>
<feBlend mode="normal" in="SourceGraphic" in2="BackgroundImageFix" result="shape"/>
<feGaussianBlur stdDeviation="30.55" result="effect1_foregroundBlur_522_348"/>
</filter>
</defs>
</svg>
